<svg id="Calque_1" data-name="Calque 1" xmlns="http://www.w3.org/2000/svg" viewBox="0 0 143.95 143.94"><defs><style>.cls-1{fill:#fff;}</style></defs><title>search</title><g id="Icon"><path class="cls-1" d="M260.47,442.34,226.53,476a8.47,8.47,0,0,0,0,12l.62.62a8.46,8.46,0,0,0,12,0L272.66,455a8.49,8.49,0,0,0,2.47-6v-3.24l2.52-2.11a56.31,56.31,0,0,0,35.71,13.06A54.58,54.58,0,0,0,368,402c0-30.34-24.37-54.77-54.2-54.77A54.58,54.58,0,0,0,259.16,402a55.74,55.74,0,0,0,13,35.81l-2.53,2.11h-3.23A8.43,8.43,0,0,0,260.47,442.34Zm7.39-40.2a45.4,45.4,0,1,1,45.39,45.53A45.27,45.27,0,0,1,267.86,402.14Z" transform="translate(-224.03 -347.19)"/></g></svg>